inDegrees=no
num_controls=7
num_derivatives=13
num_iterations=103
num_multipliers=7
num_parameters=0
num_slacks=7
num_states=26
objective=0.444860
objective_accelerations=0.057718
objective_balance=0.003400
objective_effort=0.023039
objective_height=0.355218
objective_ligament=0.005485
solver_duration=1792.073424
status=Solve_Succeeded
success=true
DataType=double
version=3
OpenSimVersion=4.5
endheader
time	/jointset/ground_pelvis/pelvis_tilt/value	/jointset/ground_pelvis/pelvis_tx/value	/jointset/ground_pelvis/pelvis_ty/value	/jointset/hip_l/hip_flexion_l/value	/jointset/hip_l/hip_adduction_l/value	/jointset/hip_l/hip_rotation_l/value	/jointset/back/lumbar_extension/value	/jointset/patellofemoral_l/patellar_flexion_l/value	/jointset/knee_l/knee_flexion_l/value	/jointset/knee_l/knee_adduction_l/value	/jointset/knee_l/knee_rotation_l/value	/jointset/ankle_l/ankle_angle_l/value	/jointset/subtalar_l/subtalar_angle_l/value	/jointset/ground_pelvis/pelvis_tilt/speed	/jointset/ground_pelvis/pelvis_tx/speed	/jointset/ground_pelvis/pelvis_ty/speed	/jointset/hip_l/hip_flexion_l/speed	/jointset/hip_l/hip_adduction_l/speed	/jointset/hip_l/hip_rotation_l/speed	/jointset/back/lumbar_extension/speed	/jointset/patellofemoral_l/patellar_flexion_l/speed	/jointset/knee_l/knee_flexion_l/speed	/jointset/knee_l/knee_adduction_l/speed	/jointset/knee_l/knee_rotation_l/speed	/jointset/ankle_l/ankle_angle_l/speed	/jointset/subtalar_l/subtalar_angle_l/speed	/forceset/tau_hip_flexion_l	/forceset/tau_hip_adduction_l	/forceset/tau_hip_rotation_l	/forceset/tau_knee_flexion_l	/forceset/tau_ankle_angle_l	/forceset/tau_subtalar_angle_l	/forceset/tau_lumbar_extension	lambda_cid13_p0	lambda_cid13_p1	lambda_cid13_p2	lambda_cid13_p3	lambda_cid13_p4	lambda_cid13_p5	lambda_cid14_p0	/jointset/ground_pelvis/pelvis_tilt/accel	/jointset/ground_pelvis/pelvis_tx/accel	/jointset/ground_pelvis/pelvis_ty/accel	/jointset/hip_l/hip_flexion_l/accel	/jointset/hip_l/hip_adduction_l/accel	/jointset/hip_l/hip_rotation_l/accel	/jointset/back/lumbar_extension/accel	/jointset/patellofemoral_l/patellar_flexion_l/accel	/jointset/knee_l/knee_flexion_l/accel	/jointset/knee_l/knee_adduction_l/accel	/jointset/knee_l/knee_rotation_l/accel	/jointset/ankle_l/ankle_angle_l/accel	/jointset/subtalar_l/subtalar_angle_l/accel	gamma_cid13_p0	gamma_cid13_p1	gamma_cid13_p2	gamma_cid13_p3	gamma_cid13_p4	gamma_cid13_p5	gamma_cid14_p0
0	-0.03973084364187774	0.06900465741698752	0.8959591398417982	0.1955287580552426	-0.3219202182537685	-0.4851220627887068	-0.1379045077516729	0.07015288079084793	0.07015288079084844	-0.1745326970268879	-0.1195018317943324	-0.06701059314715049	0.00393218688049282	0	0	0	0	0	0	0	0	0	0	0	0	0	0.1069611006468897	-0.1039439408387228	-0.03072044990001728	-0.2362125570508976	0.1946139524490652	-0.01248898014296423	-0.05166207778684306	26.94632270813517	-2.316206709772802	3.485274408617639	-2.022301572429336	-515.0200243121669	-83.37446389727515	-39.95917285878409	-4.425770636216403	-1.809198381915583	-0.97771178238338	12.56052200190983	-2.151343649938259	3.400418351391686	-2.83110461511665	10.39202142128578	10.39202142128566	0.7136930354210733	-0.8396034273627131	2.460467665760289	-1.02159026307651	-2.547606242380533e-08	1.214698569625952e-07	1.192086937328e-07	9.667874194145555e-09	-7.933678795818528e-09	-3.952204355573761e-08	-5.306709815650715e-09
0.01	-0.03994213584652512	0.0689157343145355	0.8959116790795251	0.1961360797524141	-0.3220261206821178	-0.4849511724577989	-0.13805195664835	0.07065777624080714	0.07065777624080939	-0.1745005077194767	-0.1195373826129215	-0.06689204624800187	0.003880452693105905	-0.04208062378985797	-0.01767266353723393	-0.009461223875275503	0.1209035030200133	-0.02107639517625262	0.03404138244600071	-0.02923205954924884	0.100529896258821	0.1005298962588201	0.006417122477171061	-0.007057222257442488	0.023644862817296	-0.01026893398662593	0.1037249030115652	-0.1035923916623995	-0.03024941361836807	-0.2333696730757404	0.1911771556762778	-0.01034434303060652	-0.04872104786781758	25.89778733551375	-3.049735654811171	3.585888909800033	-2.187447530388122	-515.9347051550774	-84.66439418902112	-39.96939850498867	-4.072547350152013	-1.729504863041034	-0.9256899899395287	11.77112708071135	-2.070205597109348	3.385482711540817	-2.930598656911486	9.816095729594819	9.81609572959492	0.6026455005947682	-0.6308291706125371	2.306819962696351	-1.017892368629144	-6.943241226163939e-08	1.531470759549707e-07	2.048976543118035e-07	4.891086200372218e-08	-2.414636445776902e-07	-9.516506339914709e-08	-1.224302577525416e-08
0.02	-0.04056890210902674	0.06865344367202843	0.8957705336185311	0.1979356090055172	-0.3223396706913573	-0.4844439713983623	-0.1384839945469365	0.07215449505363535	0.07215449505363533	-0.1744047624579099	-0.1196419151632229	-0.06653898584608371	0.003728359685418013	-0.08309481157097406	-0.03467350801101054	-0.01873693974415886	0.2384415111865993	-0.04152951617812922	0.0672621457054627	-0.05691780038179815	0.1983646725742242	0.1983646725742289	0.01271119082352537	-0.01379634634198608	0.04690270055387556	-0.0200717640601931	0.1004887053762089	-0.1032408424860757	-0.02977837733671622	-0.2305267891006086	0.1877403589034795	-0.008199705918254164	-0.04578001794880765	24.91365852839649	-3.795795120028924	3.689933997908641	-2.517012506845188	-515.9107753602748	-85.78758058890445	-39.99946802714164	-4.212483434468041	-1.674834569224108	-0.9406101811049529	11.88742303122437	-2.026688815063088	3.236294514083938	-2.52184087177675	9.852997432602248	9.852997432603393	0.689082209257647	-0.7759837927829342	2.383062649617007	-0.9283694804647911	-1.133887620994735e-07	1.848242949473463e-07	2.90586614890807e-07	8.815384981329882e-08	-4.749936103595619e-07	-1.508080832425566e-07	-1.917934173485762e-08
0.03	-0.04160082890455206	0.06822425787923178	0.8955372534216827	0.2008948899760909	-0.3228544498594538	-0.4836089623764613	-0.1391846016264157	0.0746166885698112	0.07461668856980574	-0.1742463551267176	-0.1198127742462357	-0.06595536590733402	0.003480707623028689	-0.1230851905633032	-0.05107353960907573	-0.02790970190192322	0.3528650881913348	-0.0613045341137654	0.09960243598461403	-0.08295492495329564	0.2936204286914543	0.2936204286914645	0.01895521299414578	-0.02032350775697403	0.06972527921498976	-0.02938060298230021	0.09573919251370483	-0.09998523410415751	-0.02894742582050427	-0.2256671602887668	0.1818787968239402	-0.00724454940589392	-0.0418400215694277	23.1010497783895	-3.966364800630156	3.800647494360643	-1.921847467692977	-515.8369627793662	-85.58415110431801	-40.04812943913136	-3.86152430204673	-1.609053024866638	-0.9042955168498079	11.13736533049467	-1.934692894940295	3.212275058245665	-2.607344665734027	9.293828269866275	9.293828269866371	0.5898678851616656	-0.5832527564361023	2.21745238198003	-0.9204960728972342	-1.428441863250359e-07	2.029336977723801e-07	3.466695101210877e-07	1.162535146377542e-07	-6.453486531162182e-07	-1.877398477780951e-07	-2.31787369179254e-08
